# Blender v2.80 (sub 75) OBJ File: 'WorkTable.blend'
# www.blender.org
mtllib WorkTable.mtl
o Cube
v 0.000000 0.300000 0.800000
v 0.000000 0.400000 0.800000
v 0.000000 0.300000 0.000000
v 0.000000 0.400000 0.000000
v 0.800000 0.300000 0.800000
v 0.800000 0.400000 0.800000
v 0.800000 0.300000 0.000000
v 0.800000 0.400000 0.000000
vt 0.999900 0.000100
vt 0.999900 0.999900
vt 0.000100 0.999900
vt 0.000100 0.000100
vt 0.999900 0.000100
vt 0.999900 0.999900
vt 0.000100 0.999900
vt 0.000100 0.000100
vt 0.000100 0.999900
vt 0.000100 0.000100
vt 0.999900 0.000100
vt 0.999900 0.999900
vt 0.000100 0.999900
vt 0.000100 0.000100
vt 0.999900 0.000100
vt 0.999900 0.999900
vt 0.999900 0.000100
vt 0.000100 0.999900
vt 0.999900 0.000100
vt 0.000100 0.999900
vn -1.0000 0.0000 0.0000
vn 0.0000 0.0000 -1.0000
vn 1.0000 0.0000 0.0000
vn 0.0000 0.0000 1.0000
vn 0.0000 -1.0000 0.0000
vn 0.0000 1.0000 0.0000
usemtl Wood
s off
f 1/1/1 2/2/1 4/3/1 3/4/1
f 3/5/2 4/6/2 8/7/2 7/8/2
f 7/9/3 8/10/3 6/11/3 5/12/3
f 5/13/4 6/14/4 2/15/4 1/16/4
f 3/4/5 7/17/5 5/12/5 1/18/5
f 8/10/6 4/19/6 2/2/6 6/20/6
o Cube.001
v 0.700000 0.000000 0.700000
v 0.700000 0.300000 0.700000
v 0.700000 0.000000 0.000000
v 0.700000 0.300000 0.000000
v 0.800000 0.000000 0.700000
v 0.800000 0.300000 0.700000
v 0.800000 0.000000 0.000000
v 0.800000 0.300000 0.000000
vt 0.999900 0.000100
vt 0.999900 0.999900
vt 0.000100 0.999900
vt 0.000100 0.000100
vt 0.999900 0.000100
vt 0.999900 0.999900
vt 0.000100 0.999900
vt 0.000100 0.000100
vt 0.000100 0.999900
vt 0.000100 0.000100
vt 0.999900 0.000100
vt 0.999900 0.999900
vt 0.000100 0.999900
vt 0.000100 0.000100
vt 0.999900 0.000100
vt 0.999900 0.999900
vt 0.999900 0.000100
vt 0.000100 0.999900
vt 0.999900 0.000100
vt 0.000100 0.999900
vn -1.0000 0.0000 0.0000
vn 0.0000 0.0000 -1.0000
vn 1.0000 0.0000 0.0000
vn 0.0000 0.0000 1.0000
vn 0.0000 -1.0000 0.0000
vn 0.0000 1.0000 0.0000
usemtl Wood
s off
f 9/21/7 10/22/7 12/23/7 11/24/7
f 11/25/8 12/26/8 16/27/8 15/28/8
f 15/29/9 16/30/9 14/31/9 13/32/9
f 13/33/10 14/34/10 10/35/10 9/36/10
f 11/24/11 15/37/11 13/32/11 9/38/11
f 16/30/12 12/39/12 10/22/12 14/40/12
o Cube.002
v 0.600000 0.000000 0.800000
v 0.600000 0.300000 0.800000
v 0.600000 0.000000 0.700000
v 0.600000 0.300000 0.700000
v 0.800000 0.000000 0.800000
v 0.800000 0.300000 0.800000
v 0.800000 0.000000 0.700000
v 0.800000 0.300000 0.700000
vt 0.999900 0.000100
vt 0.999900 0.999900
vt 0.000100 0.999900
vt 0.000100 0.000100
vt 0.999900 0.000100
vt 0.999900 0.999900
vt 0.000100 0.999900
vt 0.000100 0.000100
vt 0.000100 0.999900
vt 0.000100 0.000100
vt 0.999900 0.000100
vt 0.999900 0.999900
vt 0.000100 0.999900
vt 0.000100 0.000100
vt 0.999900 0.000100
vt 0.999900 0.999900
vt 0.999900 0.000100
vt 0.000100 0.999900
vt 0.999900 0.000100
vt 0.000100 0.999900
vn -1.0000 0.0000 0.0000
vn 0.0000 0.0000 -1.0000
vn 1.0000 0.0000 0.0000
vn 0.0000 0.0000 1.0000
vn 0.0000 -1.0000 0.0000
vn 0.0000 1.0000 0.0000
usemtl Wood
s off
f 17/41/13 18/42/13 20/43/13 19/44/13
f 19/45/14 20/46/14 24/47/14 23/48/14
f 23/49/15 24/50/15 22/51/15 21/52/15
f 21/53/16 22/54/16 18/55/16 17/56/16
f 19/44/17 23/57/17 21/52/17 17/58/17
f 24/50/18 20/59/18 18/42/18 22/60/18
o Cube.003
v 0.000000 0.200000 0.800000
v 0.000000 0.300000 0.800000
v 0.000000 0.200000 0.700000
v 0.000000 0.300000 0.700000
v 0.400000 0.200000 0.800000
v 0.400000 0.300000 0.800000
v 0.400000 0.200000 0.700000
v 0.400000 0.300000 0.700000
vt 0.999900 0.000100
vt 0.999900 0.999900
vt 0.000100 0.999900
vt 0.000100 0.000100
vt 0.999900 0.000100
vt 0.999900 0.999900
vt 0.000100 0.999900
vt 0.000100 0.000100
vt 0.000100 0.999900
vt 0.000100 0.000100
vt 0.999900 0.000100
vt 0.999900 0.999900
vt 0.000100 0.999900
vt 0.000100 0.000100
vt 0.999900 0.000100
vt 0.999900 0.999900
vt 0.999900 0.000100
vt 0.000100 0.999900
vt 0.999900 0.000100
vt 0.000100 0.999900
vn -1.0000 0.0000 0.0000
vn 0.0000 0.0000 -1.0000
vn 1.0000 0.0000 0.0000
vn 0.0000 0.0000 1.0000
vn 0.0000 -1.0000 0.0000
vn 0.0000 1.0000 0.0000
usemtl Wood
s off
f 25/61/19 26/62/19 28/63/19 27/64/19
f 27/65/20 28/66/20 32/67/20 31/68/20
f 31/69/21 32/70/21 30/71/21 29/72/21
f 29/73/22 30/74/22 26/75/22 25/76/22
f 27/64/23 31/77/23 29/72/23 25/78/23
f 32/70/24 28/79/24 26/62/24 30/80/24
o Cube.004
v 0.400000 0.200000 0.800000
v 0.400000 0.300000 0.800000
v 0.400000 0.200000 0.700000
v 0.400000 0.300000 0.700000
v 0.600000 0.100012 0.800000
v 0.600000 0.300000 0.800000
v 0.600000 0.100013 0.700000
v 0.600000 0.300000 0.700000
v 0.500325 0.174838 0.700000
v 0.500325 0.300000 0.700000
v 0.500325 0.174837 0.800000
v 0.500325 0.300000 0.800000
vt 0.999900 0.000100
vt 0.999900 0.999900
vt 0.000100 0.999900
vt 0.000100 0.000100
vt 0.000050 0.625839
vt 0.000050 0.000050
vt 0.249230 0.000050
vt 0.249230 0.999950
vt 0.000071 0.999924
vt 0.000071 0.000071
vt 0.500030 0.000071
vt 0.500029 0.999929
vt 0.400789 0.000063
vt 0.400789 0.999937
vt 0.000063 0.999937
vt 0.000063 0.201078
vt 0.898956 0.999905
vt 0.000095 0.000095
vt 0.898956 0.000099
vt 0.501622 0.999929
vt 0.000071 0.000071
vt 0.501622 0.000071
vt 0.000071 0.498378
vt 0.000071 0.000071
vt 0.999929 0.000071
vt 0.999929 0.498378
vt 0.561187 0.999925
vt 0.000077 0.999925
vt 0.000075 0.000075
vt 0.561187 0.000075
vt 0.249228 0.000050
vt 0.249228 0.999950
vt 0.000050 0.999950
vt 0.000050 0.374162
vt 0.000063 0.798926
vt 0.000063 0.000063
vt 0.400791 0.000063
vt 0.400791 0.999937
vn -1.0000 0.0000 0.0000
vn 0.0000 0.0000 -1.0000
vn 1.0000 0.0000 0.0000
vn 0.0000 0.0000 1.0000
vn -0.6004 -0.7997 -0.0000
vn 0.0000 1.0000 0.0000
vn -0.2433 -0.9700 -0.0000
usemtl Wood
s off
f 33/81/25 34/82/25 36/83/25 35/84/25
f 41/85/26 42/86/26 40/87/26 39/88/26
f 39/89/27 40/90/27 38/91/27 37/92/27
f 43/93/28 44/94/28 34/95/28 33/96/28
f 41/97/29 39/89/29 37/98/29 43/99/29
f 42/100/30 36/83/30 34/101/30 44/102/30
f 40/103/30 42/104/30 44/105/30 38/106/30
f 35/107/31 41/108/31 43/109/31 33/110/31
f 37/111/28 38/112/28 44/113/28 43/114/28
f 35/115/26 36/116/26 42/117/26 41/118/26
