# Blender v2.80 (sub 75) OBJ File: 'Computer.blend'
# www.blender.org
mtllib Computer.mtl
o Cube
v 0.200000 0.000000 0.590000
v 0.200000 0.050000 0.590000
v 0.200000 0.000000 0.440000
v 0.200000 0.050000 0.440000
v 0.600000 0.000000 0.590000
v 0.600000 0.050000 0.590000
v 0.600000 0.000000 0.440000
v 0.600000 0.050000 0.440000
vt 0.999900 0.000100
vt 0.999900 0.999900
vt 0.000100 0.999900
vt 0.000100 0.000100
vt 0.999900 0.000100
vt 0.999900 0.999900
vt 0.000100 0.999900
vt 0.000100 0.000100
vt 0.000100 0.999900
vt 0.000100 0.000100
vt 0.999900 0.000100
vt 0.999900 0.999900
vt 0.000100 0.999900
vt 0.000100 0.000100
vt 0.999900 0.000100
vt 0.999900 0.999900
vt 0.999900 0.000100
vt 0.000100 0.999900
vt 0.999957 0.998701
vt 0.000158 1.001098
vt 0.000043 0.001298
vt 0.999842 -0.001098
vn -1.0000 0.0000 0.0000
vn 0.0000 0.0000 -1.0000
vn 1.0000 0.0000 0.0000
vn 0.0000 0.0000 1.0000
vn 0.0000 -1.0000 0.0000
vn 0.0000 1.0000 0.0000
usemtl Plastic
s off
f 1/1/1 2/2/1 4/3/1 3/4/1
f 3/5/2 4/6/2 8/7/2 7/8/2
f 7/9/3 8/10/3 6/11/3 5/12/3
f 5/13/4 6/14/4 2/15/4 1/16/4
f 3/4/5 7/17/5 5/12/5 1/18/5
usemtl Keyboard_Top
f 8/19/6 4/20/6 2/21/6 6/22/6
o Cube.001
v 0.100000 0.039380 0.294350
v 0.100000 0.433303 0.224891
v 0.100000 0.030697 0.245109
v 0.100000 0.424620 0.175650
v 0.700000 0.039380 0.294350
v 0.700000 0.433303 0.224891
v 0.700000 0.030697 0.245109
v 0.700000 0.424620 0.175650
vt 0.002129 0.030425
vt 0.002737 0.951825
vt 0.994835 0.952266
vt 0.994045 0.028776
vt 0.375000 0.000000
vt 0.625000 0.000000
vt 0.625000 0.250000
vt 0.375000 0.250000
vt 0.625000 0.500000
vt 0.375000 0.500000
vt 0.625000 0.750000
vt 0.375000 0.750000
vt 0.125000 0.500000
vt 0.125000 0.750000
vt 0.875000 0.500000
vt 0.875000 0.750000
vn 0.0000 0.1736 0.9848
vn -1.0000 0.0000 0.0000
vn 0.0000 -0.1736 -0.9848
vn 1.0000 0.0000 0.0000
vn 0.0000 -0.9848 0.1736
vn 0.0000 0.9848 -0.1736
usemtl Monitor_Glass
s off
f 13/23/7 14/24/7 10/25/7 9/26/7
usemtl Monitor_Plastic
f 9/27/8 10/28/8 12/29/8 11/30/8
f 11/30/9 12/29/9 16/31/9 15/32/9
f 15/32/10 16/31/10 14/33/10 13/34/10
f 11/35/11 15/32/11 13/34/11 9/36/11
f 16/31/12 12/37/12 10/38/12 14/33/12
o Cube.002
v 0.375000 0.000000 0.225000
v 0.375000 0.120000 0.229731
v 0.375000 0.000000 0.175000
v 0.375000 0.230776 0.209873
v 0.425000 0.000000 0.225000
v 0.425000 0.122783 0.229731
v 0.425000 0.000000 0.175250
v 0.425000 0.230838 0.209870
vt 0.375000 0.000000
vt 0.625000 0.000000
vt 0.625000 0.250000
vt 0.375000 0.250000
vt 0.625000 0.500000
vt 0.375000 0.500000
vt 0.625000 0.750000
vt 0.375000 0.750000
vt 0.625000 1.000000
vt 0.375000 1.000000
vt 0.125000 0.500000
vt 0.125000 0.750000
vt 0.875000 0.500000
vt 0.875000 0.750000
vn -1.0000 0.0000 0.0000
vn 0.0024 0.1489 -0.9889
vn 1.0000 0.0000 0.0000
vn 0.0011 -0.0389 0.9992
vn 0.0000 -1.0000 0.0000
vn -0.0051 0.1786 0.9839
usemtl Metal
s off
f 17/39/13 18/40/13 20/41/13 19/42/13
f 19/42/14 20/41/14 24/43/14 23/44/14
f 23/44/15 24/43/15 22/45/15 21/46/15
f 21/46/16 22/45/16 18/47/16 17/48/16
f 19/49/17 23/44/17 21/46/17 17/50/17
f 24/43/18 20/51/18 18/52/18 22/45/18
