# Blender v2.80 (sub 75) OBJ File: 'ApartmentWallCorner.blend'
# www.blender.org
mtllib ApartmentWallCorner.mtl
o Cube
v 0.000000 0.000000 0.200000
v 0.000000 1.600000 0.200000
v 0.000000 0.000000 0.000000
v 0.000000 1.600000 0.000000
v 0.200000 0.000000 0.200000
v 0.200000 1.600000 0.200000
v 0.200000 0.000000 0.000000
v 0.200000 1.600000 0.000000
vt 0.625000 0.000000
vt 0.375000 0.250000
vt 0.375000 0.000000
vt 0.625000 0.250000
vt 0.375000 0.500000
vt 0.972865 0.975267
vt 0.027135 0.028654
vt 0.972076 0.029096
vt 0.984338 0.982855
vt 0.018123 0.009868
vt 0.985210 0.010845
vt 0.125000 0.750000
vt 0.125000 0.500000
vt 0.875000 0.500000
vt 0.625000 0.750000
vt 0.625000 0.500000
vt 0.027924 0.974825
vt 0.017251 0.981877
vt 0.375000 0.750000
vt 0.875000 0.750000
vn -1.0000 0.0000 0.0000
vn 0.0000 0.0000 -1.0000
vn 1.0000 0.0000 0.0000
vn 0.0000 0.0000 1.0000
vn 0.0000 -1.0000 0.0000
vn 0.0000 1.0000 0.0000
usemtl Wall
s off
f 2/1/1 3/2/1 1/3/1
f 4/4/2 7/5/2 3/2/2
f 8/6/3 5/7/3 7/8/3
f 6/9/4 1/10/4 5/11/4
f 7/5/5 1/12/5 3/13/5
f 4/14/6 6/15/6 8/16/6
f 2/1/1 4/4/1 3/2/1
f 4/4/2 8/16/2 7/5/2
f 8/6/3 6/17/3 5/7/3
f 6/9/4 2/18/4 1/10/4
f 7/5/5 5/19/5 1/12/5
f 4/14/6 2/20/6 6/15/6
