# Blender v2.80 (sub 75) OBJ File: 'PlayerRoomFloor.blend'
# www.blender.org
mtllib PlayerRoomFloor.mtl
o Plane
v 0.000000 0.000000 3.200000
v 3.200000 0.000000 3.200000
v 0.000000 0.000000 0.000000
v 3.200000 0.000000 0.000000
vt 0.999900 0.000100
vt 0.000100 0.999900
vt 0.000100 0.000100
vt 0.999900 0.999900
vn 0.0000 1.0000 0.0000
usemtl Floor
s off
f 2/1/1 3/2/1 1/3/1
f 2/1/1 4/4/1 3/2/1
o Plane.001
v 0.000000 0.000000 4.000000
v 0.800000 0.000000 4.000000
v 0.000000 0.000000 3.200000
v 0.800000 0.000000 3.200000
vt 0.248861 0.751713
vt 0.000100 0.999900
vt 0.000100 0.751310
vt 0.248924 0.999900
vn 0.0000 1.0000 0.0000
usemtl Floor
s off
f 6/5/2 7/6/2 5/7/2
f 6/5/2 8/8/2 7/6/2
