# Blender v2.80 (sub 75) OBJ File: 'Bed.blend'
# www.blender.org
mtllib Bed.mtl
o Cube
v 0.050000 0.000000 0.800000
v 0.050000 0.300000 0.800000
v 0.050000 0.000000 0.000000
v 0.050000 0.300000 0.000000
v 1.550000 0.000000 0.800000
v 1.550000 0.300000 0.800000
v 1.550000 0.000000 0.000000
v 1.550000 0.300000 0.000000
vt 0.375000 0.000000
vt 0.625000 0.000000
vt 0.625000 0.250000
vt 0.375000 0.250000
vt 0.625000 0.500000
vt 0.375000 0.500000
vt 0.625000 0.750000
vt 0.375000 0.750000
vt 1.000005 0.000075
vt 0.999995 1.000075
vt -0.000005 0.999925
vt 0.000005 -0.002028
vt 0.125000 0.500000
vt 0.125000 0.750000
vt 0.010013 0.009029
vt 0.993924 0.009029
vt 0.993924 0.992940
vt 0.010013 0.992940
vn -1.0000 0.0000 0.0000
vn 0.0000 0.0000 -1.0000
vn 1.0000 0.0000 0.0000
vn 0.0000 0.0000 1.0000
vn 0.0000 -1.0000 0.0000
vn 0.0000 1.0000 0.0000
usemtl Wood
s off
f 1/1/1 2/2/1 4/3/1 3/4/1
f 3/4/2 4/3/2 8/5/2 7/6/2
f 7/6/3 8/5/3 6/7/3 5/8/3
f 5/9/4 6/10/4 2/11/4 1/12/4
f 3/13/5 7/6/5 5/8/5 1/14/5
usemtl Bed_Top
f 8/15/6 4/16/6 2/17/6 6/18/6
o Cube.001
v 0.000000 0.000000 0.800000
v 0.000000 0.300001 0.800000
v 0.000000 0.000000 0.000000
v 0.000000 0.600000 0.000000
v 0.050000 0.000000 0.800000
v 0.050000 0.299994 0.800000
v 0.050000 0.000000 0.000000
v 0.050000 0.600000 0.000000
v 0.000000 0.000000 0.400000
v 0.000000 0.525680 0.400000
v 0.050000 0.000000 0.400000
v 0.050000 0.525961 0.400000
v 0.000000 0.000000 0.600000
v 0.050000 0.450076 0.600000
v 0.000000 0.450082 0.600736
v 0.050000 0.000000 0.600000
v 0.000000 0.567080 0.200000
v 0.050000 0.000000 0.200000
v 0.000000 0.000000 0.200000
v 0.050000 0.567078 0.200000
vt 0.749687 0.995654
vt 0.752549 0.050090
vt 0.999017 -0.002676
vt 0.999255 0.995595
vt 0.375000 0.250000
vt 0.625000 0.250000
vt 0.625000 0.500000
vt 0.375000 0.500000
vt 0.746238 0.999559
vt 0.746156 0.253501
vt 0.995453 0.501511
vt 0.995536 0.999538
vt 0.375000 0.750000
vt 0.625000 0.750000
vt 0.625000 1.000000
vt 0.375000 1.000000
vt 0.125000 0.687500
vt 0.375000 0.687500
vt 0.125000 0.750000
vt 0.625000 0.687500
vt 0.875000 0.687500
vt 0.875000 0.750000
vt 0.625000 0.562500
vt 0.875000 0.562500
vt 0.875000 0.625000
vt 0.625000 0.625000
vt 0.125000 0.562500
vt 0.375000 0.562500
vt 0.375000 0.625000
vt 0.125000 0.625000
vt 0.247643 0.999600
vt 0.247561 0.052016
vt 0.496858 0.126405
vt 0.496941 0.999579
vt 0.250551 0.995773
vt 0.253414 0.248634
vt 0.499881 0.121458
vt 0.500119 0.995714
vt 0.000983 0.995833
vt 0.000745 0.496725
vt -0.001654 0.999621
vt -0.001737 0.002431
vt 0.125000 0.500000
vt 0.875000 0.500000
vn -1.0000 0.0000 0.0000
vn 0.0000 0.0000 -1.0000
vn 1.0000 0.0000 0.0000
vn 0.0000 0.0000 1.0000
vn 0.0000 -1.0000 0.0000
vn 0.0045 0.7993 0.6009
vn -0.0027 0.9794 0.2020
vn 0.0000 0.9354 0.3536
vn 0.0000 0.9867 0.1624
usemtl Bed_Side_Panel_Big_Face
s off
f 27/19/7 25/20/7 12/21/7 11/22/7
f 11/23/8 12/24/8 16/25/8 15/26/8
f 24/27/9 22/28/9 14/29/9 13/30/9
f 13/31/10 14/32/10 10/33/10 9/34/10
f 21/35/11 24/36/11 13/31/11 9/37/11
f 22/38/12 23/39/12 10/40/12 14/32/12
f 28/41/13 25/42/13 18/43/13 20/44/13
f 27/45/11 26/46/11 19/47/11 17/48/11
f 26/49/9 28/50/9 20/51/9 19/52/9
f 21/53/7 23/54/7 18/55/7 17/56/7
f 9/57/7 10/58/7 23/54/7 21/53/7
f 20/44/14 18/43/14 23/39/14 22/38/14
f 17/48/11 19/47/11 24/36/11 21/35/11
f 19/52/9 20/51/9 22/28/9 24/27/9
f 15/59/9 16/60/9 28/50/9 26/49/9
f 11/61/11 15/26/11 26/46/11 27/45/11
f 16/25/15 12/62/15 25/42/15 28/41/15
f 17/56/7 18/55/7 25/20/7 27/19/7
o Cube.002
v 1.100000 0.330101 0.700000
v 1.100000 0.369899 0.700000
v 1.099857 0.329958 0.100000
v 1.099753 0.369952 0.100000
v 1.500000 0.329816 0.700000
v 1.500000 0.370180 0.700000
v 1.500000 0.330047 0.100000
v 1.500016 0.370102 0.100000
v 1.100000 0.300000 0.400000
v 1.100000 0.400000 0.400000
v 1.500000 0.300000 0.400000
v 1.500000 0.400000 0.400000
v 1.100000 0.300000 0.550000
v 1.500000 0.400000 0.550000
v 1.100000 0.400000 0.550000
v 1.500000 0.300000 0.550000
v 1.100000 0.400000 0.256908
v 1.500000 0.300000 0.256908
v 1.100000 0.300000 0.256908
v 1.500000 0.400000 0.256908
vt 0.125000 0.687500
vt 0.375000 0.687500
vt 0.375000 0.750000
vt 0.125000 0.750000
vt 0.947486 0.254494
vt -0.025611 0.254494
vt -0.025611 0.011220
vt 0.947486 0.011220
vt 0.947486 0.729838
vt -0.025611 0.729838
vt -0.025611 0.497768
vt 0.947486 0.497768
vt 0.125000 0.565378
vt 0.375000 0.565378
vt 0.375000 0.625000
vt 0.125000 0.625000
vt 0.125000 0.500000
vt 0.375000 0.500000
vt 0.947486 0.984316
vt -0.025611 0.984316
vt 0.375000 0.184622
vt 0.625000 0.184622
vt 0.625000 0.250000
vt 0.375000 0.250000
vt 0.625000 0.500000
vt 0.625000 0.687500
vt 0.625000 0.750000
vt 0.625000 1.000000
vt 0.375000 1.000000
vt 0.625000 0.565378
vt 0.625000 0.625000
vt 0.375000 0.062500
vt 0.625000 0.062500
vt 0.625000 0.125000
vt 0.375000 0.125000
vt 0.375000 0.000000
vt 0.625000 0.000000
vn -0.0003 -0.9806 0.1959
vn -0.0003 0.9806 0.1959
vn 0.0000 1.0000 0.0000
vn 0.0000 -1.0000 0.0000
vn 0.0001 -0.9822 -0.1878
vn -0.0002 0.9822 -0.1876
vn -1.0000 -0.0007 0.0012
vn 0.0000 0.0000 -1.0000
vn 1.0000 0.0000 0.0000
vn 0.0000 0.0000 1.0000
vn -1.0000 0.0000 0.0000
vn 1.0000 -0.0001 0.0001
usemtl Cushion_Top
s off
f 41/63/16 44/64/16 33/65/16 29/66/16
f 42/67/17 43/68/17 30/69/17 34/70/17
f 48/71/18 45/72/18 38/73/18 40/74/18
f 47/75/19 46/76/19 39/77/19 37/78/19
f 40/74/18 38/73/18 43/68/18 42/67/18
f 37/78/19 39/77/19 44/64/19 41/63/19
f 31/79/20 35/80/20 46/76/20 47/75/20
f 36/81/21 32/82/21 45/72/21 48/71/21
usemtl Blanket_Side
f 47/83/22 45/84/22 32/85/22 31/86/22
f 31/86/23 32/85/23 36/87/23 35/80/23
f 44/64/24 42/88/24 34/89/24 33/65/24
f 33/65/25 34/89/25 30/90/25 29/91/25
f 46/76/24 48/92/24 40/93/24 39/77/24
f 41/94/26 43/95/26 38/96/26 37/97/26
f 29/98/26 30/99/26 43/95/26 41/94/26
f 39/77/24 40/93/24 42/88/24 44/64/24
f 35/80/27 36/87/27 48/92/27 46/76/27
f 37/97/26 38/96/26 45/84/26 47/83/26
o Cube.003
v 0.050000 0.300000 0.800000
v 0.050000 0.299896 0.799645
v 0.050000 0.300000 0.000000
v 0.050000 0.299896 0.000426
v 1.000000 0.300000 0.800000
v 1.000000 0.300060 0.799975
v 1.000000 0.300000 0.000000
v 1.000000 0.300067 -0.000058
v 0.050000 0.300000 0.400000
v 0.050000 0.400000 0.400000
v 1.000000 0.300000 0.400000
v 1.000000 0.400000 0.400000
v 0.050000 0.300000 0.600000
v 1.000000 0.400000 0.600000
v 0.050000 0.400000 0.600000
v 1.000000 0.300000 0.600000
v 0.050000 0.400000 0.200000
v 1.000000 0.300000 0.200000
v 0.050000 0.300000 0.200000
v 1.000000 0.400000 0.200000
vt 0.375000 0.187500
vt 0.625000 0.187500
vt 0.625000 0.250000
vt 0.375000 0.250000
vt 0.625000 0.500000
vt 0.375000 0.500000
vt 0.375000 0.750000
vt 0.625000 0.750000
vt 0.625000 1.000000
vt 0.375000 1.000000
vt 0.125000 0.687500
vt 0.375000 0.687500
vt 0.125000 0.750000
vt 0.003489 0.726455
vt 0.992181 0.726455
vt 0.992181 0.973628
vt 0.003489 0.973628
vt 0.003489 0.232109
vt 0.992181 0.232109
vt 0.992181 0.479282
vt 0.003489 0.479282
vt 0.125000 0.562500
vt 0.375000 0.562500
vt 0.375000 0.625000
vt 0.125000 0.625000
vt 0.375000 0.062500
vt 0.625000 0.062500
vt 0.625000 0.125000
vt 0.375000 0.125000
vt 0.375000 0.000000
vt 0.625000 0.000000
vt 0.125000 0.500000
vt 0.003489 -0.015064
vt 0.992181 -0.015064
vt 0.625000 0.687500
vt 0.625000 0.562500
vt 0.625000 0.625000
vn -1.0000 -0.0000 0.0000
vn -0.0001 0.9948 0.1014
vn -0.0001 0.9933 -0.1152
vn 0.0000 -1.0000 0.0000
vn -0.0002 0.8942 0.4476
vn 0.0000 1.0000 0.0000
vn -0.0002 0.8942 -0.4476
vn 1.0000 0.0000 0.0000
usemtl Blanket_Top
s off
f 67/100/28 65/101/28 52/102/28 51/103/28
f 51/103/29 52/102/29 56/104/29 55/105/29
f 53/106/30 54/107/30 50/108/30 49/109/30
f 61/110/31 64/111/31 53/106/31 49/112/31
f 62/113/32 63/114/32 50/115/32 54/116/32
f 68/117/33 65/118/33 58/119/33 60/120/33
f 67/121/31 66/122/31 59/123/31 57/124/31
f 61/125/28 63/126/28 58/127/28 57/128/28
f 49/129/28 50/130/28 63/126/28 61/125/28
f 60/120/33 58/119/33 63/114/33 62/113/33
f 57/124/31 59/123/31 64/111/31 61/110/31
f 51/131/31 55/105/31 66/122/31 67/121/31
f 56/132/34 52/133/34 65/118/34 68/117/34
f 57/128/28 58/127/28 65/101/28 67/100/28
usemtl Blanket_Side
f 64/111/35 62/134/35 54/107/35 53/106/35
f 66/122/35 68/135/35 60/136/35 59/123/35
f 59/123/35 60/136/35 62/134/35 64/111/35
f 55/105/35 56/104/35 68/135/35 66/122/35
o Cube.004_Cube.001
v 1.550000 0.000000 0.800000
v 1.550000 0.300001 0.800000
v 1.550000 0.000000 0.000000
v 1.550000 0.600000 0.000000
v 1.600000 0.000000 0.800000
v 1.600000 0.299994 0.800000
v 1.600000 0.000000 0.000000
v 1.600000 0.600000 0.000000
v 1.550000 0.000000 0.400000
v 1.550000 0.525680 0.400000
v 1.600000 0.000000 0.400000
v 1.600000 0.525961 0.400000
v 1.550000 0.000000 0.600000
v 1.600000 0.450076 0.600000
v 1.550000 0.450082 0.600736
v 1.600000 0.000000 0.600000
v 1.550000 0.567080 0.200000
v 1.600000 0.000000 0.200000
v 1.550000 0.000000 0.200000
v 1.600000 0.567078 0.200000
vt 0.749687 0.995654
vt 0.752549 0.050090
vt 0.999017 -0.002676
vt 0.999255 0.995595
vt 0.375000 0.250000
vt 0.625000 0.250000
vt 0.625000 0.500000
vt 0.375000 0.500000
vt 0.746238 0.999559
vt 0.746156 0.253501
vt 0.995453 0.501511
vt 0.995536 0.999538
vt 0.375000 0.750000
vt 0.625000 0.750000
vt 0.625000 1.000000
vt 0.375000 1.000000
vt 0.125000 0.687500
vt 0.375000 0.687500
vt 0.125000 0.750000
vt 0.625000 0.687500
vt 0.875000 0.687500
vt 0.875000 0.750000
vt 0.625000 0.562500
vt 0.875000 0.562500
vt 0.875000 0.625000
vt 0.625000 0.625000
vt 0.125000 0.562500
vt 0.375000 0.562500
vt 0.375000 0.625000
vt 0.125000 0.625000
vt 0.247643 0.999600
vt 0.247561 0.052016
vt 0.496858 0.126405
vt 0.496941 0.999579
vt 0.250551 0.995773
vt 0.253414 0.248634
vt 0.499881 0.121458
vt 0.500119 0.995714
vt 0.000983 0.995833
vt 0.000745 0.496725
vt -0.001654 0.999621
vt -0.001737 0.002431
vt 0.125000 0.500000
vt 0.875000 0.500000
vn -1.0000 0.0000 0.0000
vn 0.0000 0.0000 -1.0000
vn 1.0000 0.0000 0.0000
vn 0.0000 0.0000 1.0000
vn 0.0000 -1.0000 0.0000
vn 0.0045 0.7993 0.6009
vn -0.0027 0.9794 0.2020
vn 0.0000 0.9354 0.3536
vn 0.0000 0.9867 0.1624
usemtl Bed_Side_Panel_Big_Face
s off
f 87/137/36 85/138/36 72/139/36 71/140/36
f 71/141/37 72/142/37 76/143/37 75/144/37
f 84/145/38 82/146/38 74/147/38 73/148/38
f 73/149/39 74/150/39 70/151/39 69/152/39
f 81/153/40 84/154/40 73/149/40 69/155/40
f 82/156/41 83/157/41 70/158/41 74/150/41
f 88/159/42 85/160/42 78/161/42 80/162/42
f 87/163/40 86/164/40 79/165/40 77/166/40
f 86/167/38 88/168/38 80/169/38 79/170/38
f 81/171/36 83/172/36 78/173/36 77/174/36
f 69/175/36 70/176/36 83/172/36 81/171/36
f 80/162/43 78/161/43 83/157/43 82/156/43
f 77/166/40 79/165/40 84/154/40 81/153/40
f 79/170/38 80/169/38 82/146/38 84/145/38
f 75/177/38 76/178/38 88/168/38 86/167/38
f 71/179/40 75/144/40 86/164/40 87/163/40
f 76/143/44 72/180/44 85/160/44 88/159/44
f 77/174/36 78/173/36 85/138/36 87/137/36
