# Blender v2.80 (sub 75) OBJ File: 'Oven.blend'
# www.blender.org
mtllib Oven.mtl
o Cube.001
v 0.000000 0.900000 0.800000
v 0.000000 1.200000 0.800000
v 0.000000 0.900000 0.000000
v 0.000000 1.200000 0.000000
v 0.800000 0.900000 0.800000
v 0.800000 1.200000 0.800000
v 0.800000 0.900000 0.000000
v 0.800000 1.200000 0.000000
vt 0.979425 0.018967
vt 0.978597 0.982156
vt 0.017475 0.983395
vt 0.018303 0.020206
vt 0.984957 0.014115
vt 0.985465 0.985572
vt 0.011942 0.983916
vt 0.011434 0.012460
vt 0.992273 0.016613
vt 0.992163 0.983936
vt 0.010889 0.983387
vt 0.010999 0.016064
vt 0.989666 0.023356
vt 0.989778 0.975509
vt 0.010788 0.978565
vt 0.010491 0.021432
vt 0.125000 0.500000
vt 0.375000 0.500000
vt 0.375000 0.750000
vt 0.125000 0.750000
vt 0.625000 0.500000
vt 0.875000 0.500000
vt 0.875000 0.750000
vt 0.625000 0.750000
vn -1.0000 0.0000 0.0000
vn 0.0000 0.0000 -1.0000
vn 1.0000 0.0000 0.0000
vn 0.0000 0.0000 1.0000
vn 0.0000 -1.0000 0.0000
vn 0.0000 1.0000 0.0000
usemtl SmallBlackTile
s off
f 1/1/1 2/2/1 4/3/1 3/4/1
f 3/5/2 4/6/2 8/7/2 7/8/2
f 7/9/3 8/10/3 6/11/3 5/12/3
f 5/13/4 6/14/4 2/15/4 1/16/4
f 3/17/5 7/18/5 5/19/5 1/20/5
f 8/21/6 4/22/6 2/23/6 6/24/6
o Cube.002
v 0.100000 0.300000 0.800000
v 0.100000 0.900000 0.800000
v 0.100000 0.300000 0.000000
v 0.100000 0.900000 0.000000
v 0.700000 0.300000 0.800000
v 0.700000 0.900000 0.800000
v 0.700000 0.300000 0.000000
v 0.700000 0.900000 0.000000
vt 0.375000 0.000000
vt 0.625000 0.000000
vt 0.625000 0.250000
vt 0.375000 0.250000
vt 0.892918 0.517212
vt 0.892918 0.449977
vt 0.960153 0.449977
vt 0.960153 0.517212
vt 0.375000 0.500000
vt 0.625000 0.500000
vt 0.625000 0.750000
vt 0.375000 0.750000
vt 1.000027 0.000227
vt 0.999773 1.000027
vt -0.000027 0.999773
vt 0.000227 -0.000027
vt 0.125000 0.500000
vt 0.125000 0.750000
vt 0.875000 0.500000
vt 0.875000 0.750000
vn -1.0000 0.0000 0.0000
vn 0.0000 0.0000 -1.0000
vn 1.0000 0.0000 0.0000
vn 0.0000 0.0000 1.0000
vn 0.0000 -1.0000 0.0000
vn 0.0000 1.0000 0.0000
usemtl OvenFront
s off
f 9/25/7 10/26/7 12/27/7 11/28/7
f 11/29/8 12/30/8 16/31/8 15/32/8
f 15/33/9 16/34/9 14/35/9 13/36/9
f 13/37/10 14/38/10 10/39/10 9/40/10
f 11/41/11 15/33/11 13/36/11 9/42/11
f 16/34/12 12/43/12 10/44/12 14/35/12
o Cube.004
v 0.700000 0.300000 0.800000
v 0.700000 0.900000 0.800000
v 0.700000 0.300000 0.000000
v 0.700000 0.900000 0.000000
v 0.800000 0.300000 0.800000
v 0.800000 0.900000 0.800000
v 0.800000 0.300000 0.000000
v 0.800000 0.900000 0.000000
vt 0.976878 0.021072
vt 0.976492 0.973926
vt 0.023122 0.973022
vt 0.023508 0.020168
vt 0.375000 0.250000
vt 0.625000 0.250000
vt 0.625000 0.500000
vt 0.375000 0.500000
vt 0.973665 0.025997
vt 0.973997 0.974636
vt 0.026336 0.975971
vt 0.026003 0.027332
vt 0.371094 0.307292
vt 0.621094 0.307292
vt 0.621094 0.557292
vt 0.371094 0.557292
vt 0.125000 0.500000
vt 0.375000 0.750000
vt 0.125000 0.750000
vt 0.875000 0.500000
vt 0.875000 0.750000
vt 0.625000 0.750000
vn -1.0000 0.0000 0.0000
vn 0.0000 0.0000 -1.0000
vn 1.0000 0.0000 0.0000
vn 0.0000 0.0000 1.0000
vn 0.0000 -1.0000 0.0000
vn 0.0000 1.0000 0.0000
usemtl LargeBlackTile
s off
f 17/45/13 18/46/13 20/47/13 19/48/13
f 19/49/14 20/50/14 24/51/14 23/52/14
f 23/53/15 24/54/15 22/55/15 21/56/15
f 21/57/16 22/58/16 18/59/16 17/60/16
f 19/61/17 23/52/17 21/62/17 17/63/17
f 24/51/18 20/64/18 18/65/18 22/66/18
o Cube.005_Cube.001
v 0.000000 0.000000 0.800000
v 0.000000 0.300000 0.800000
v 0.000000 0.000000 0.000000
v 0.000000 0.300000 0.000000
v 0.800000 0.000000 0.800000
v 0.800000 0.300000 0.800000
v 0.800000 0.000000 0.000000
v 0.800000 0.300000 0.000000
vt 0.979425 0.018967
vt 0.978597 0.982156
vt 0.017475 0.983395
vt 0.018303 0.020206
vt 0.984957 0.014115
vt 0.985465 0.985572
vt 0.011942 0.983916
vt 0.011434 0.012460
vt 0.992273 0.016613
vt 0.992163 0.983936
vt 0.010889 0.983387
vt 0.010999 0.016064
vt 0.989666 0.023356
vt 0.989778 0.975509
vt 0.010788 0.978565
vt 0.010491 0.021432
vt 0.125000 0.500000
vt 0.375000 0.500000
vt 0.375000 0.750000
vt 0.125000 0.750000
vt 0.625000 0.500000
vt 0.875000 0.500000
vt 0.875000 0.750000
vt 0.625000 0.750000
vn -1.0000 0.0000 0.0000
vn 0.0000 0.0000 -1.0000
vn 1.0000 0.0000 0.0000
vn 0.0000 0.0000 1.0000
vn 0.0000 -1.0000 0.0000
vn 0.0000 1.0000 0.0000
usemtl SmallBlackTile
s off
f 25/67/19 26/68/19 28/69/19 27/70/19
f 27/71/20 28/72/20 32/73/20 31/74/20
f 31/75/21 32/76/21 30/77/21 29/78/21
f 29/79/22 30/80/22 26/81/22 25/82/22
f 27/83/23 31/84/23 29/85/23 25/86/23
f 32/87/24 28/88/24 26/89/24 30/90/24
o Cube.000_Cube.004
v 0.000000 0.300000 0.800000
v 0.000000 0.900000 0.800000
v 0.000000 0.300000 0.000000
v 0.000000 0.900000 0.000000
v 0.100000 0.300000 0.800000
v 0.100000 0.900000 0.800000
v 0.100000 0.300000 0.000000
v 0.100000 0.900000 0.000000
vt 0.976878 0.021072
vt 0.976492 0.973926
vt 0.023122 0.973022
vt 0.023508 0.020168
vt 0.375000 0.250000
vt 0.625000 0.250000
vt 0.625000 0.500000
vt 0.375000 0.500000
vt 0.973665 0.025997
vt 0.973997 0.974636
vt 0.026336 0.975971
vt 0.026003 0.027332
vt 0.371094 0.307292
vt 0.621094 0.307292
vt 0.621094 0.557292
vt 0.371094 0.557292
vt 0.125000 0.500000
vt 0.375000 0.750000
vt 0.125000 0.750000
vt 0.875000 0.500000
vt 0.875000 0.750000
vt 0.625000 0.750000
vn -1.0000 0.0000 0.0000
vn 0.0000 0.0000 -1.0000
vn 1.0000 0.0000 0.0000
vn 0.0000 0.0000 1.0000
vn 0.0000 -1.0000 0.0000
vn 0.0000 1.0000 0.0000
usemtl LargeBlackTile
s off
f 33/91/25 34/92/25 36/93/25 35/94/25
f 35/95/26 36/96/26 40/97/26 39/98/26
f 39/99/27 40/100/27 38/101/27 37/102/27
f 37/103/28 38/104/28 34/105/28 33/106/28
f 35/107/29 39/98/29 37/108/29 33/109/29
f 40/97/30 36/110/30 34/111/30 38/112/30
