# Blender v2.80 (sub 75) OBJ File: 'KitchenDeskWithSink.blend'
# www.blender.org
mtllib KitchenDeskWithSink.mtl
o Cube
v 0.200000 0.200000 0.550000
v 0.200000 0.200000 0.250000
v 0.600000 0.200000 0.550000
v 0.600000 0.200000 0.250000
v 0.000000 0.000000 0.700000
v 0.000000 0.300000 0.700000
v 0.000000 0.000000 0.100000
v 0.000000 0.300000 0.100000
v 0.800000 0.000000 0.700000
v 0.800000 0.300000 0.700000
v 0.800000 0.000000 0.100000
v 0.800000 0.300000 0.100000
v 0.200000 0.300000 0.550000
v 0.200000 0.300000 0.250000
v 0.600000 0.300000 0.250000
v 0.600000 0.300000 0.550000
vt 0.985962 0.962758
vt 0.013536 0.033108
vt 0.985509 0.032640
vt 0.375000 0.500000
vt 0.125000 0.750000
vt 0.125000 0.500000
vt 0.687500 0.687500
vt 0.875000 0.750000
vt 0.625000 0.750000
vt 0.812500 0.562500
vt 0.625000 0.500000
vt 0.875000 0.500000
vt 0.013989 0.963226
vt 0.375000 0.750000
vt 0.687500 0.562500
vt 0.812500 0.687500
vt 0.991288 0.978761
vt 0.013262 0.021239
vt 0.991014 0.017420
vt 0.967831 0.973733
vt 0.026110 0.026267
vt 0.967831 0.026270
vt 0.013536 0.979299
vt 0.026109 0.973730
vt 0.999900 0.999900
vt 0.000100 0.000100
vt 0.999900 0.000100
vt 0.000100 0.999900
vt 0.125027 0.999965
vt 0.000035 0.000035
vt 0.125027 0.000035
vt 0.093775 0.999969
vt 0.000031 0.000031
vt 0.093775 0.000031
vt 0.000035 0.000035
vt 0.125027 0.999965
vt 0.000035 0.999965
vt 0.000050 0.000050
vt 0.250025 0.999950
vt 0.000050 0.999950
vt 0.000035 0.999965
vt 0.000031 0.999969
vt 0.125027 0.000036
vt 0.250025 0.000050
vt 0.013629 0.010503
vt 0.990321 0.984288
vt 0.013758 0.984461
vt 0.990191 0.010330
vn 0.0000 0.0000 1.0000
vn 0.0000 -1.0000 0.0000
vn 0.0000 1.0000 0.0000
vn -1.0000 0.0000 0.0000
vn 1.0000 0.0000 0.0000
vn 0.0000 0.0000 -1.0000
usemtl DeskFront
s off
f 10/1/1 5/2/1 9/3/1
f 11/4/2 5/5/2 7/6/2
f 16/7/3 6/8/3 10/9/3
f 14/10/3 12/11/3 8/12/3
f 10/1/1 6/13/1 5/2/1
f 11/4/2 9/14/2 5/5/2
f 10/9/3 12/11/3 15/15/3
f 16/7/3 13/16/3 6/8/3
f 10/9/3 15/15/3 16/7/3
f 8/12/3 6/8/3 13/16/3
f 14/10/3 15/15/3 12/11/3
f 8/12/3 13/16/3 14/10/3
usemtl DeskSide
f 6/17/4 7/18/4 5/19/4
f 12/20/5 9/21/5 11/22/5
f 6/17/4 8/23/4 7/18/4
f 12/20/5 10/24/5 9/21/5
usemtl DeskBack
f 8/25/6 11/26/6 7/27/6
f 8/25/6 12/28/6 11/26/6
usemtl KitchenSinkColor
f 2/29/5 13/30/5 1/31/5
f 4/32/1 14/33/1 2/34/1
f 3/35/4 15/36/4 4/37/4
f 1/38/6 16/39/6 3/40/6
f 2/29/5 14/41/5 13/30/5
f 4/32/1 15/42/1 14/33/1
f 3/35/4 16/43/4 15/36/4
f 1/38/6 13/44/6 16/39/6
usemtl KitchenSinkBottom
f 1/45/3 4/46/3 2/47/3
f 1/45/3 3/48/3 4/46/3
o Cube.001
v 0.200000 0.400000 0.550000
v 0.200000 0.400000 0.250000
v 0.600000 0.400000 0.550000
v 0.600000 0.400000 0.250000
v 0.000000 0.300000 0.800000
v 0.000000 0.400000 0.800000
v 0.000000 0.300000 0.000000
v 0.000000 0.400000 0.000000
v 0.800000 0.300000 0.800000
v 0.800000 0.400000 0.800000
v 0.800000 0.300000 0.000000
v 0.800000 0.400000 0.000000
v 0.200000 0.300000 0.550000
v 0.200000 0.300000 0.250000
v 0.600000 0.300000 0.250000
v 0.600000 0.300000 0.550000
vt 0.765229 0.376446
vt 0.305083 0.318928
vt 0.765229 0.318928
vt 0.811424 0.381732
vt 0.297951 0.317548
vt 0.811424 0.317548
vt 0.801216 0.393396
vt 0.257378 0.325416
vt 0.801216 0.325416
vt 0.884650 0.373552
vt 0.314569 0.302292
vt 0.884650 0.302291
vt 0.000100 0.999900
vt 0.250050 0.312538
vt 0.250050 0.687463
vt 0.250050 0.687463
vt 0.999900 0.999900
vt 0.000100 0.999900
vt 0.749950 0.312537
vt 0.000100 0.000100
vt 0.999900 0.000100
vt 0.749950 0.312537
vt 0.000100 0.000100
vt 0.999900 0.000100
vt 0.305083 0.376446
vt 0.297951 0.381732
vt 0.257378 0.393396
vt 0.314569 0.373551
vt 0.749950 0.687463
vt 0.999900 0.999900
vt 0.250050 0.312538
vt 0.749950 0.687462
vt 0.814190 0.946828
vt 0.219948 0.792219
vt 0.627090 0.724177
vt 0.000090 0.999910
vt 0.187190 0.275822
vt 0.000090 0.053172
vt 0.594332 0.207781
vt 0.814190 0.000090
vn -1.0000 0.0000 0.0000
vn 0.0000 0.0000 -1.0000
vn 1.0000 0.0000 0.0000
vn 0.0000 0.0000 1.0000
vn -0.0000 -1.0000 0.0000
vn 0.0000 1.0000 -0.0000
usemtl DeskTop
s off
f 22/49/7 23/50/7 21/51/7
f 24/52/8 27/53/8 23/54/8
f 28/55/9 25/56/9 27/57/9
f 26/58/10 21/59/10 25/60/10
f 27/61/11 32/62/11 31/63/11
f 19/64/12 22/65/12 26/66/12
f 18/67/12 28/68/12 24/69/12
f 29/70/11 25/71/11 21/72/11
f 22/49/7 24/73/7 23/50/7
f 24/52/8 28/74/8 27/53/8
f 28/55/9 26/75/9 25/56/9
f 26/58/10 22/76/10 21/59/10
f 30/77/11 23/78/11 27/61/11
f 27/61/11 25/71/11 32/62/11
f 31/63/11 30/77/11 27/61/11
f 26/66/12 28/68/12 20/79/12
f 19/64/12 17/80/12 22/65/12
f 26/66/12 20/79/12 19/64/12
f 24/69/12 22/65/12 17/80/12
f 18/67/12 20/79/12 28/68/12
f 24/69/12 17/80/12 18/67/12
f 23/78/11 30/77/11 29/70/11
f 29/70/11 32/62/11 25/71/11
f 21/72/11 23/78/11 29/70/11
usemtl KitchenSinkColor
f 19/81/7 31/82/7 32/83/7
f 20/84/10 30/85/10 31/82/10
f 18/86/9 29/87/9 30/85/9
f 17/88/8 32/83/8 29/87/8
f 19/81/7 20/84/7 31/82/7
f 20/84/10 18/86/10 30/85/10
f 18/86/9 17/88/9 29/87/9
f 17/88/8 19/81/8 32/83/8
o Cube.002_Cube.003
v 0.350000 0.400000 0.250000
v 0.350000 0.500000 0.250000
v 0.350000 0.400000 0.150000
v 0.350000 0.500000 0.150000
v 0.450000 0.400000 0.250000
v 0.450000 0.500000 0.250000
v 0.450000 0.400000 0.150000
v 0.450000 0.500000 0.150000
vt 0.625000 0.000000
vt 0.375000 0.250000
vt 0.375000 0.000000
vt 0.625000 0.250000
vt 0.375000 0.500000
vt 0.625000 0.500000
vt 0.375000 0.750000
vt 0.625000 0.750000
vt 0.375000 1.000000
vt 0.125000 0.750000
vt 0.125000 0.500000
vt 0.875000 0.500000
vt 0.625000 1.000000
vt 0.875000 0.750000
vn -1.0000 0.0000 0.0000
vn 0.0000 0.0000 -1.0000
vn 1.0000 0.0000 0.0000
vn 0.0000 0.0000 1.0000
vn 0.0000 -1.0000 0.0000
vn 0.0000 1.0000 0.0000
usemtl KitchenSinkColor
s off
f 34/89/13 35/90/13 33/91/13
f 36/92/14 39/93/14 35/90/14
f 40/94/15 37/95/15 39/93/15
f 38/96/16 33/97/16 37/95/16
f 39/93/17 33/98/17 35/99/17
f 36/100/18 38/96/18 40/94/18
f 34/89/13 36/92/13 35/90/13
f 36/92/14 40/94/14 39/93/14
f 40/94/15 38/96/15 37/95/15
f 38/96/16 34/101/16 33/97/16
f 39/93/17 37/95/17 33/98/17
f 36/100/18 34/102/18 38/96/18
o Cube.003_Cube.004
v 0.350000 0.500000 0.350000
v 0.350000 0.600000 0.350000
v 0.350000 0.500000 0.150000
v 0.350000 0.600000 0.150000
v 0.450000 0.500000 0.350000
v 0.450000 0.600000 0.350000
v 0.450000 0.500000 0.150000
v 0.450000 0.600000 0.150000
vt 0.625000 0.000000
vt 0.375000 0.250000
vt 0.375000 0.000000
vt 0.625000 0.250000
vt 0.375000 0.500000
vt 0.625000 0.500000
vt 0.375000 0.750000
vt 0.625000 0.750000
vt 0.375000 1.000000
vt 0.125000 0.750000
vt 0.125000 0.500000
vt 0.875000 0.500000
vt 0.625000 1.000000
vt 0.875000 0.750000
vn -1.0000 0.0000 0.0000
vn 0.0000 0.0000 -1.0000
vn 1.0000 0.0000 0.0000
vn 0.0000 0.0000 1.0000
vn 0.0000 -1.0000 0.0000
vn 0.0000 1.0000 0.0000
usemtl KitchenSinkColor
s off
f 42/103/19 43/104/19 41/105/19
f 44/106/20 47/107/20 43/104/20
f 48/108/21 45/109/21 47/107/21
f 46/110/22 41/111/22 45/109/22
f 47/107/23 41/112/23 43/113/23
f 44/114/24 46/110/24 48/108/24
f 42/103/19 44/106/19 43/104/19
f 44/106/20 48/108/20 47/107/20
f 48/108/21 46/110/21 45/109/21
f 46/110/22 42/115/22 41/111/22
f 47/107/23 45/109/23 41/112/23
f 44/114/24 42/116/24 46/110/24
