# Blender v2.80 (sub 75) OBJ File: 'KitchenDesk.blend'
# www.blender.org
mtllib KitchenDesk.mtl
o Cube
v 0.000000 0.000000 0.700000
v 0.000000 0.300000 0.700000
v 0.000000 0.000000 0.100000
v 0.000000 0.300000 0.100000
v 0.800000 0.000000 0.700000
v 0.800000 0.300000 0.700000
v 0.800000 0.000000 0.100000
v 0.800000 0.300000 0.100000
vt 0.985509 0.032640
vt 0.985962 0.962758
vt 0.013989 0.963226
vt 0.013536 0.033108
vt 0.125000 0.500000
vt 0.375000 0.500000
vt 0.375000 0.750000
vt 0.125000 0.750000
vt 0.625000 0.500000
vt 0.875000 0.500000
vt 0.875000 0.750000
vt 0.625000 0.750000
vt 0.991014 0.017420
vt 0.991288 0.978761
vt 0.013536 0.979299
vt 0.013262 0.021239
vt 0.967831 0.026270
vt 0.967831 0.973733
vt 0.026109 0.973730
vt 0.026110 0.026267
vt 0.999900 0.000100
vt 0.999900 0.999900
vt 0.000100 0.999900
vt 0.000100 0.000100
vn 0.0000 0.0000 1.0000
vn 0.0000 -1.0000 0.0000
vn 0.0000 1.0000 0.0000
vn -1.0000 0.0000 0.0000
vn 1.0000 0.0000 0.0000
vn 0.0000 0.0000 -1.0000
usemtl DeskFront
s off
f 5/1/1 6/2/1 2/3/1 1/4/1
f 3/5/2 7/6/2 5/7/2 1/8/2
f 8/9/3 4/10/3 2/11/3 6/12/3
usemtl DeskSide
f 1/13/4 2/14/4 4/15/4 3/16/4
f 7/17/5 8/18/5 6/19/5 5/20/5
usemtl DeskBack
f 3/21/6 4/22/6 8/23/6 7/24/6
o Cube.001
v 0.000000 0.300000 0.800000
v 0.000000 0.400000 0.800000
v 0.000000 0.300000 0.000000
v 0.000000 0.400000 0.000000
v 0.800000 0.300000 0.800000
v 0.800000 0.400000 0.800000
v 0.800000 0.300000 0.000000
v 0.800000 0.400000 0.000000
vt 0.765229 0.318928
vt 0.765229 0.376446
vt 0.305083 0.376446
vt 0.305083 0.318928
vt 0.811424 0.317548
vt 0.811424 0.381732
vt 0.297951 0.381732
vt 0.297951 0.317548
vt 0.801216 0.325416
vt 0.801216 0.393396
vt 0.257378 0.393396
vt 0.257378 0.325416
vt 0.884650 0.302291
vt 0.884650 0.373552
vt 0.314569 0.373551
vt 0.314569 0.302292
vt 0.999900 0.999900
vt 0.000100 0.999900
vt 0.000100 0.000100
vt 0.999900 0.000100
vt 0.000100 0.000100
vt 0.999900 0.000100
vt 0.999900 0.999900
vt 0.000100 0.999900
vn -1.0000 0.0000 0.0000
vn 0.0000 0.0000 -1.0000
vn 1.0000 0.0000 0.0000
vn 0.0000 0.0000 1.0000
vn 0.0000 -1.0000 0.0000
vn 0.0000 1.0000 0.0000
usemtl DeskTop
s off
f 9/25/7 10/26/7 12/27/7 11/28/7
f 11/29/8 12/30/8 16/31/8 15/32/8
f 15/33/9 16/34/9 14/35/9 13/36/9
f 13/37/10 14/38/10 10/39/10 9/40/10
f 11/41/11 15/42/11 13/43/11 9/44/11
f 16/45/12 12/46/12 10/47/12 14/48/12
